<svg id="visual" viewBox="0 0 900 600" width="900" height="600" xmlns="http://www.w3.org/2000/svg" xmlns:xlink="http://www.w3.org/1999/xlink" version="1.1"><path d="M845 600L842 588.8C839 577.7 833 555.3 831.5 533.2C830 511 833 489 836 466.8C839 444.7 842 422.3 842 400C842 377.7 839 355.3 834.5 333.2C830 311 824 289 822.5 266.8C821 244.7 824 222.3 828.5 200C833 177.7 839 155.3 840.5 133.2C842 111 839 89 837.5 66.8C836 44.7 836 22.3 836 11.2L836 0L900 0L900 11.2C900 22.3 900 44.7 900 66.8C900 89 900 111 900 133.2C900 155.3 900 177.7 900 200C900 222.3 900 244.7 900 266.8C900 289 900 311 900 333.2C900 355.3 900 377.7 900 400C900 422.3 900 444.7 900 466.8C900 489 900 511 900 533.2C900 555.3 900 577.7 900 588.8L900 600Z" fill="#7170fa"></path><path d="M737 600L735.5 588.8C734 577.7 731 555.3 732.5 533.2C734 511 740 489 743 466.8C746 444.7 746 422.3 746 400C746 377.7 746 355.3 743 333.2C740 311 734 289 734 266.8C734 244.7 740 222.3 741.5 200C743 177.7 740 155.3 740 133.2C740 111 743 89 743 66.8C743 44.7 740 22.3 738.5 11.2L737 0L837 0L837 11.2C837 22.3 837 44.7 838.5 66.8C840 89 843 111 841.5 133.2C840 155.3 834 177.7 829.5 200C825 222.3 822 244.7 823.5 266.8C825 289 831 311 835.5 333.2C840 355.3 843 377.7 843 400C843 422.3 840 444.7 837 466.8C834 489 831 511 832.5 533.2C834 555.3 840 577.7 843 588.8L846 600Z" fill="#5e5df7"></path><path d="M683 600L683 588.8C683 577.7 683 555.3 684.5 533.2C686 511 689 489 690.5 466.8C692 444.7 692 422.3 693.5 400C695 377.7 698 355.3 696.5 333.2C695 311 689 289 687.5 266.8C686 244.7 689 222.3 687.5 200C686 177.7 680 155.3 681.5 133.2C683 111 692 89 695 66.8C698 44.7 695 22.3 693.5 11.2L692 0L738 0L739.5 11.2C741 22.3 744 44.7 744 66.8C744 89 741 111 741 133.2C741 155.3 744 177.7 742.5 200C741 222.3 735 244.7 735 266.8C735 289 741 311 744 333.2C747 355.3 747 377.7 747 400C747 422.3 747 444.7 744 466.8C741 489 735 511 733.5 533.2C732 555.3 735 577.7 736.5 588.8L738 600Z" fill="#4a4af3"></path><path d="M467 600L471.5 588.8C476 577.7 485 555.3 482 533.2C479 511 464 489 465.5 466.8C467 444.7 485 422.3 489.5 400C494 377.7 485 355.3 488 333.2C491 311 506 289 513.5 266.8C521 244.7 521 222.3 510.5 200C500 177.7 479 155.3 476 133.2C473 111 488 89 497 66.8C506 44.7 509 22.3 510.5 11.2L512 0L693 0L694.5 11.2C696 22.3 699 44.7 696 66.8C693 89 684 111 682.5 133.2C681 155.3 687 177.7 688.5 200C690 222.3 687 244.7 688.5 266.8C690 289 696 311 697.5 333.2C699 355.3 696 377.7 694.5 400C693 422.3 693 444.7 691.5 466.8C690 489 687 511 685.5 533.2C684 555.3 684 577.7 684 588.8L684 600Z" fill="#3134ef"></path><path d="M260 600L258.5 588.8C257 577.7 254 555.3 252.5 533.2C251 511 251 489 252.5 466.8C254 444.7 257 422.3 260 400C263 377.7 266 355.3 269 333.2C272 311 275 289 275 266.8C275 244.7 272 222.3 273.5 200C275 177.7 281 155.3 281 133.2C281 111 275 89 275 66.8C275 44.7 281 22.3 284 11.2L287 0L513 0L511.5 11.2C510 22.3 507 44.7 498 66.8C489 89 474 111 477 133.2C480 155.3 501 177.7 511.5 200C522 222.3 522 244.7 514.5 266.8C507 289 492 311 489 333.2C486 355.3 495 377.7 490.5 400C486 422.3 468 444.7 466.5 466.8C465 489 480 511 483 533.2C486 555.3 477 577.7 472.5 588.8L468 600Z" fill="#1c27e3"></path><path d="M179 600L176 588.8C173 577.7 167 555.3 167 533.2C167 511 173 489 177.5 466.8C182 444.7 185 422.3 186.5 400C188 377.7 188 355.3 186.5 333.2C185 311 182 289 182 266.8C182 244.7 185 222.3 189.5 200C194 177.7 200 155.3 197 133.2C194 111 182 89 180.5 66.8C179 44.7 188 22.3 192.5 11.2L197 0L288 0L285 11.2C282 22.3 276 44.7 276 66.8C276 89 282 111 282 133.2C282 155.3 276 177.7 274.5 200C273 222.3 276 244.7 276 266.8C276 289 273 311 270 333.2C267 355.3 264 377.7 261 400C258 422.3 255 444.7 253.5 466.8C252 489 252 511 253.5 533.2C255 555.3 258 577.7 259.5 588.8L261 600Z" fill="#1424d2"></path><path d="M107 600L107 588.8C107 577.7 107 555.3 110 533.2C113 511 119 489 120.5 466.8C122 444.7 119 422.3 120.5 400C122 377.7 128 355.3 129.5 333.2C131 311 128 289 128 266.8C128 244.7 131 222.3 134 200C137 177.7 140 155.3 134 133.2C128 111 113 89 110 66.8C107 44.7 116 22.3 120.5 11.2L125 0L198 0L193.5 11.2C189 22.3 180 44.7 181.5 66.8C183 89 195 111 198 133.2C201 155.3 195 177.7 190.5 200C186 222.3 183 244.7 183 266.8C183 289 186 311 187.5 333.2C189 355.3 189 377.7 187.5 400C186 422.3 183 444.7 178.5 466.8C174 489 168 511 168 533.2C168 555.3 174 577.7 177 588.8L180 600Z" fill="#0d22c0"></path><path d="M0 600L0 588.8C0 577.7 0 555.3 0 533.2C0 511 0 489 0 466.8C0 444.7 0 422.3 0 400C0 377.7 0 355.3 0 333.2C0 311 0 289 0 266.8C0 244.7 0 222.3 0 200C0 177.7 0 155.3 0 133.2C0 111 0 89 0 66.8C0 44.7 0 22.3 0 11.2L0 0L126 0L121.5 11.2C117 22.3 108 44.7 111 66.8C114 89 129 111 135 133.2C141 155.3 138 177.7 135 200C132 222.3 129 244.7 129 266.8C129 289 132 311 130.5 333.2C129 355.3 123 377.7 121.5 400C120 422.3 123 444.7 121.5 466.8C120 489 114 511 111 533.2C108 555.3 108 577.7 108 588.8L108 600Z" fill="#061faf"></path></svg>